<svg xmlns="http://www.w3.org/2000/svg" version="1.1" xmlns:xlink="http://www.w3.org/1999/xlink" viewBox="0 0 11.575157041041098 3.8291514486498714"><g transform="matrix(0.7489279120127269,0,0,0.7489279120127269,3.9951924670613845,1.4601637137112138)"><g transform="matrix(1,0,0,1,0,0)" clip-path="url(#SvgjsClipPath155250)"><g clip-path="url(#SvgjsClipPath1552483eaa4b0a-9ff2-4eb2-80ba-916f16976b8b)"><path d=" M -1.548262488105228 0.12237172925009532 C -1.2541956486056314 0.12237171247985579 -1.0157795290151128 0.36070731328631767 -1.0156802156616846 0.6547741360156758 C -1.0156802200446688 0.9489112110525662 -1.2541254289405248 1.187356412842201 -1.548262496041322 1.1873564084592165 C -1.842329310834586 1.1872570951057926 -2.080664911641049 0.9488409755152736 -2.08066489487081 0.6547741360156758 C -2.08066489487081 0.3607364059858371 -1.84230021813507 0.12237172925009532 -1.548262488105229 0.12237172925009532 Z" fill="url(#gradient-8a26d4d4-a4c2-4970-a0be-f77581e2c8c2_0)" transform="matrix(1,0,0,1,0,0)" fill-rule="evenodd"></path></g><g clip-path="url(#SvgjsClipPath1552483eaa4b0a-9ff2-4eb2-80ba-916f16976b8b)"><path d=" M -0.7498387436348164 -0.1697301317591277 L -0.7363488177877153 -0.15659993726795185 C -0.5207016954779924 0.058526358885553686 -0.3996593641694428 0.3507108955308962 -0.3999999999999999 0.65531373304956 C -0.39963977742548984 0.95058928415547 -0.5133800456590598 1.2345855233086214 -0.7174629216017916 1.4479817758252271 C -0.7379932275328511 1.3968049090108292 -0.7685731510629665 1.3502622653979932 -0.8073957605824471 1.3111039948966272 C -0.8172914032067797 1.3012355992295224 -0.8276767566534986 1.291870771844039 -0.8385125228697605 1.283044949134653 C -0.6849726878868792 1.11002962271674 -0.6003508456291247 0.8866330799939215 -0.6007300966048614 0.65531373304956 C -0.6003881979139822 0.412851678058338 -0.6933945961686132 0.17956277606497983 -0.860456135580951 0.003840247473662628 L -0.8586574788014298 0.0020415906939530437 L -0.8586574788014298 0.0020415906939530437 C -0.8102307400621664 -0.0464749492198967 -0.7729716048284316 -0.10497240536116537 -0.7494790122788939 -0.16937040040320722 Z M -1.459768574548246 1.8003386389514882 C -1.4891466352819323 1.8024970270870244 -1.5186446064675931 1.8035762211547928 -1.548262488105228 1.8035762211547928 C -1.8528732173880935 1.8039566499064867 -2.1450724228535925 1.6829082417938404 -2.3601761584227403 1.4672274033670751 C -2.426140674750374 1.4012247570776823 -2.483877388783316 1.3274836191757766 -2.532127746553786 1.2476114105762712 C -2.4627495029034243 1.241436459394854 -2.39721242587795 1.2130517773337752 -2.3452473071519484 1.1666718554936664 C -2.3085841616409097 1.2238860681438328 -2.26582607592683 1.276956752810108 -2.217722541477354 1.3249536520996508 C -2.040337649454238 1.5027398812692416 -1.799406291837017 1.6024914186384316 -1.5482624881052278 1.6021266618380823 C -1.5356718906479339 1.6021266618380823 -1.523261158868601 1.6021266618380823 -1.5106705614113067 1.6021266618380823 L -1.5106705614113067 1.6021266618380823 C -1.510743580507728 1.6713253079745565 -1.4932279577108745 1.7394072340401183 -1.4597685745482827 1.7999789075954942 Z M -2.6963451105324943 0.632290926270513 C -2.6906681698371293 0.3357180368827317 -2.57015695865561 0.05291323632513478 -2.3601761584227448 -0.1565999372679452 C -2.165272780787825 -0.3515861464251394 -1.9065438355087012 -0.4696779311254842 -1.6315402970013304 -0.48917157581847737 C -1.650315639273904 -0.43783078711642776 -1.6598754495914811 -0.3835773413013886 -1.6597792084412617 -0.3289112567549167 C -1.659779208441262 -0.3139824054841249 -1.659779208441262 -0.2990535542133332 -1.6578006859836871 -0.2844844342984652 C -1.869731567416721 -0.2600780251268357 -2.067121442633964 -0.16452179578138726 -2.2177225414773543 -0.013426857610716159 C -2.3843467599398727 0.15271878977789 -2.4828808144674555 0.37512605999086435 -2.493996222825981 0.6101674478812706 C -2.5158854981919148 0.6056060583846274 -2.5381870432705522 0.6033156294306086 -2.5605465236716785 0.603332552118734 C -2.6073743056705156 0.6030507448144065 -2.653705889322954 0.6129307249045299 -2.6963451105324943 0.6322909262705096 Z" fill="url(#gradient-8a26d4d4-a4c2-4970-a0be-f77581e2c8c2_1)" transform="matrix(1,0,0,1,0,0)" fill-rule="evenodd"></path></g><g clip-path="url(#SvgjsClipPath1552483eaa4b0a-9ff2-4eb2-80ba-916f16976b8b)"><path d=" M -2.5605465236716785 0.7339150343186713 C -2.5096947592325605 0.7339150343186713 -2.4609257506738107 0.7541158190871948 -2.4249681232036093 0.7900734465573964 C -2.3890104957334084 0.8260310740275982 -2.3688097109648845 0.8748000825863496 -2.3688097109648845 0.9256518470254647 C -2.3688097109648845 0.9765036114645829 -2.3890104957334084 1.025272620023331 -2.4249681232036098 1.061230247493536 C -2.460925750673811 1.0971878749637343 -2.509694759232561 1.117388659732261 -2.560546523671679 1.117388659732261 C -2.6664689761793148 1.117388706251144 -2.7523639307794925 1.03157425301423 -2.752463202056434 0.9256518470254647 C -2.7523639307795027 0.8197294410367193 -2.666468976179333 0.7339149877997986 -2.5605465236716967 0.7339150343186713 Z" fill="url(#gradient-8a26d4d4-a4c2-4970-a0be-f77581e2c8c2_2)" transform="matrix(1,0,0,1,0,0)" fill-rule="evenodd"></path></g><g clip-path="url(#SvgjsClipPath1552483eaa4b0a-9ff2-4eb2-80ba-916f16976b8b)"><path d=" M -1.1910492516739963 -0.6659795372544788 C -1.101843998858658 -0.6659795372544788 -1.01629236095541 -0.6305428885517208 -0.9532147217722238 -0.5674652493685355 C -0.8901370825890376 -0.5043876101853467 -0.8547004338862803 -0.41883597228209907 -0.8547004338862803 -0.32963071946676115 C -0.8547004338862803 -0.24042546665142317 -0.890137082589038 -0.15487382874817557 -0.9532147217722242 -0.09179618956499014 C -1.0162923609554106 -0.02871855038180482 -1.1018439988586588 0.006718098320953159 -1.1910492516739972 0.006718098320953159 C -1.3768386921690454 0.0067181248574457175 -1.5274786355990586 -0.14384130550820362 -1.5275779351396737 -0.32963071946676115 C -1.5274786355990932 -0.5154201334252585 -1.3768386921691085 -0.6659795637909345 -1.1910492516740596 -0.6659795372544788 Z" fill="url(#gradient-8a26d4d4-a4c2-4970-a0be-f77581e2c8c2_3)" transform="matrix(1,0,0,1,0,0)" fill-rule="evenodd"></path></g><g clip-path="url(#SvgjsClipPath1552483eaa4b0a-9ff2-4eb2-80ba-916f16976b8b)"><path d=" M -1.099137890235749 1.3247737864216906 C -0.9460594638925108 1.3247737864216906 -0.8219648804973163 1.4488683698168834 -0.8219648804973159 1.6019467961601217 C -0.8219171569236203 1.6754888077246322 -0.8510981600119207 1.7460350641350804 -0.9030833559474942 1.7980539947857448 C -0.955068551883067 1.8500729254364092 -1.0255958631865658 1.8792996870611223 -1.0991378902357176 1.8792996715765167 C -1.1726964463005896 1.8792996715765167 -1.2432422354165298 1.8500786489563836 -1.2952559892242692 1.7980648951486433 C -1.3472697430320086 1.7460511413409026 -1.3764907656521432 1.67550535222496 -1.3764907656521432 1.6019467961601217 C -1.376490781149967 1.5284047691607574 -1.3472640195379293 1.457877457852006 -1.29524508889661 1.4058922619070837 C -1.243226158255291 1.353907065962161 -1.1726799018500849 1.3247260628611794 -1.0991378902855367 1.324773786421657 Z" fill="url(#gradient-8a26d4d4-a4c2-4970-a0be-f77581e2c8c2_4)" transform="matrix(1,0,0,1,0,0)" fill-rule="evenodd"></path></g></g><g><path d=" M 0.10350000000000001 0.1739999999999997 Q 0.051000000000000004 0.1739999999999997 0.048 0.0974999999999997 Q 0.048 0.022499999999999742 0.10350000000000001 0.022499999999999742 L 0.762 0.022499999999999742 Q 0.8115 0.022499999999999742 0.8385 0.03824999999999967 Q 0.8655 0.053999999999999826 0.8685 0.08099999999999974 Q 0.87 0.10649999999999982 0.86775 0.1297499999999998 Q 0.8655 0.1529999999999998 0.8565 0.1649999999999998 L 0.2655 1.0635 L 0.8085 1.0635 Q 0.864 1.0635 0.864 1.1369999999999998 Q 0.867 1.2149999999999999 0.8085 1.2149999999999999 L 0.1365 1.2149999999999999 Q 0.0375 1.2149999999999999 0.03 1.1549999999999998 Q 0.027 1.1294999999999997 0.03 1.1077499999999998 Q 0.033 1.0859999999999999 0.042 1.0739999999999998 Q 0.069 1.0319999999999998 0.09825 0.9869999999999998 Q 0.1275 0.9419999999999997 0.1635 0.8879999999999998 Q 0.1995 0.8339999999999999 0.24375 0.7664999999999997 Q 0.28800000000000003 0.6989999999999998 0.34500000000000003 0.6127499999999998 Q 0.402 0.5264999999999997 0.47325 0.41849999999999976 Q 0.5445 0.3104999999999998 0.6345000000000001 0.1739999999999997 L 0.10350000000000001 0.1739999999999997 M 1.177519775390625 1.1504999999999999 Q 1.177519775390625 1.2224999999999997 1.095019775390625 1.2224999999999997 Q 1.011019775390625 1.2224999999999997 1.011019775390625 1.1504999999999999 L 1.011019775390625 0.37649999999999983 Q 1.011019775390625 0.30449999999999977 1.095019775390625 0.30449999999999977 Q 1.177519775390625 0.30449999999999977 1.177519775390625 0.37649999999999983 L 1.177519775390625 1.1504999999999999 M 1.209019775390625 0.11549999999999971 Q 1.209019775390625 0.16349999999999976 1.176019775390625 0.19649999999999967 Q 1.143019775390625 0.22949999999999982 1.095019775390625 0.22949999999999982 Q 1.047019775390625 0.22949999999999982 1.013269775390625 0.19649999999999967 Q 0.979519775390625 0.16349999999999976 0.979519775390625 0.11549999999999971 Q 0.979519775390625 0.06599999999999984 1.013269775390625 0.032999999999999696 Q 1.047019775390625 -2.220446049250313e-16 1.095019775390625 -2.220446049250313e-16 Q 1.143019775390625 -2.220446049250313e-16 1.176019775390625 0.032999999999999696 Q 1.209019775390625 0.06599999999999984 1.209019775390625 0.11549999999999971 M 1.851041015625 0.5609999999999998 Q 1.851041015625 0.5414999999999998 1.8450410156250001 0.5227499999999998 Q 1.8390410156249999 0.5039999999999998 1.830041015625 0.4874999999999998 Q 1.8105410156250001 0.4514999999999998 1.749041015625 0.4514999999999998 L 1.653041015625 0.4514999999999998 Q 1.591541015625 0.4514999999999998 1.570541015625 0.4874999999999998 Q 1.5525410156250001 0.5219999999999998 1.5525410156250001 0.5609999999999998 L 1.5525410156250001 1.1549999999999998 Q 1.5525410156250001 1.2254999999999998 1.4700410156250001 1.2254999999999998 Q 1.384541015625 1.2254999999999998 1.384541015625 1.1549999999999998 L 1.384541015625 0.5474999999999998 Q 1.384541015625 0.42449999999999977 1.465541015625 0.3674999999999998 Q 1.548041015625 0.3104999999999998 1.626041015625 0.3104999999999998 L 1.777541015625 0.3104999999999998 Q 1.812041015625 0.3104999999999998 1.854041015625 0.32399999999999973 Q 1.896041015625 0.3374999999999998 1.935041015625 0.36599999999999977 Q 1.972541015625 0.3374999999999998 2.0137910156250003 0.32399999999999973 Q 2.055041015625 0.3104999999999998 2.092541015625 0.3104999999999998 L 2.242541015625 0.3104999999999998 Q 2.322041015625 0.3104999999999998 2.401541015625 0.3674999999999998 Q 2.4840410156250003 0.4229999999999998 2.4840410156250003 0.5474999999999998 L 2.4840410156250003 1.1549999999999998 Q 2.4840410156250003 1.2254999999999998 2.400041015625 1.2254999999999998 Q 2.316041015625 1.2254999999999998 2.316041015625 1.1549999999999998 L 2.316041015625 0.5609999999999998 Q 2.316041015625 0.5414999999999998 2.311541015625 0.5219999999999998 Q 2.307041015625 0.5024999999999998 2.2950410156250003 0.48599999999999977 L 2.2965410156250003 0.4874999999999998 Q 2.284541015625 0.46799999999999975 2.266541015625 0.45974999999999977 Q 2.248541015625 0.4514999999999998 2.214041015625 0.4514999999999998 L 2.119541015625 0.4514999999999998 Q 2.056541015625 0.4514999999999998 2.0370410156250003 0.4874999999999998 Q 2.017541015625 0.5204999999999997 2.017541015625 0.5609999999999998 L 2.017541015625 1.1549999999999998 Q 2.017541015625 1.2254999999999998 1.935041015625 1.2254999999999998 Q 1.851041015625 1.2254999999999998 1.851041015625 1.1549999999999998 L 1.851041015625 0.5609999999999998 M 2.893546875 1.2134999999999998 Q 2.847046875 1.2134999999999998 2.805046875 1.2007499999999998 Q 2.763046875 1.1879999999999997 2.724046875 1.1639999999999997 L 2.724046875 1.1654999999999998 Q 2.650546875 1.1189999999999998 2.650546875 0.9944999999999998 L 2.650546875 0.9209999999999998 Q 2.650546875 0.8594999999999998 2.672296875 0.8137499999999998 Q 2.694046875 0.7679999999999998 2.733046875 0.7409999999999998 L 2.731546875 0.7409999999999998 Q 2.769046875 0.7154999999999998 2.811046875 0.7027499999999998 Q 2.853046875 0.6899999999999998 2.892046875 0.6899999999999998 L 3.2235468750000003 0.6899999999999998 L 3.2235468750000003 0.5504999999999998 Q 3.2235468750000003 0.5129999999999998 3.2002968750000003 0.48224999999999973 Q 3.1770468750000003 0.4514999999999998 3.121546875 0.4514999999999998 L 2.946046875 0.4514999999999998 Q 2.889046875 0.4514999999999998 2.867296875 0.47924999999999973 Q 2.845546875 0.5069999999999998 2.845546875 0.5444999999999998 L 2.845546875 0.5564999999999998 Q 2.845546875 0.6344999999999998 2.761546875 0.6344999999999998 Q 2.677546875 0.6344999999999998 2.677546875 0.5564999999999998 L 2.677546875 0.5429999999999998 Q 2.677546875 0.4814999999999998 2.699296875 0.4394999999999998 Q 2.721046875 0.39749999999999974 2.758546875 0.3689999999999998 L 2.757046875 0.3689999999999998 Q 2.796046875 0.3434999999999998 2.838796875 0.32699999999999974 Q 2.881546875 0.3104999999999998 2.920546875 0.3104999999999998 L 3.148546875 0.3104999999999998 Q 3.186046875 0.3104999999999998 3.228796875 0.32699999999999974 Q 3.271546875 0.3434999999999998 3.309046875 0.3689999999999998 L 3.307546875 0.3689999999999998 Q 3.346546875 0.39749999999999974 3.367546875 0.4432499999999998 Q 3.3885468750000003 0.48899999999999977 3.3885468750000003 0.5489999999999998 L 3.3885468750000003 1.1504999999999999 Q 3.3885468750000003 1.2224999999999997 3.306046875 1.2224999999999997 Q 3.289546875 1.2224999999999997 3.275296875 1.2209999999999999 Q 3.261046875 1.2194999999999998 3.249796875 1.2127499999999998 Q 3.238546875 1.2059999999999997 3.231796875 1.1932499999999997 Q 3.225046875 1.1804999999999999 3.225046875 1.1594999999999998 L 3.2235468750000003 0.8309999999999997 L 2.920546875 0.8309999999999997 Q 2.887546875 0.8309999999999997 2.869546875 0.8384999999999998 Q 2.851546875 0.8459999999999999 2.841046875 0.8624999999999998 Q 2.829046875 0.8879999999999998 2.823796875 0.9022499999999998 Q 2.818546875 0.9164999999999999 2.818546875 0.9344999999999998 L 2.818546875 0.9929999999999998 Q 2.818546875 1.0319999999999998 2.841796875 1.05225 Q 2.865046875 1.0724999999999998 2.922046875 1.0724999999999998 L 3.090046875 1.0724999999999998 Q 3.145546875 1.0724999999999998 3.145546875 1.1429999999999998 Q 3.145546875 1.1729999999999998 3.132046875 1.1932499999999997 Q 3.118546875 1.2134999999999998 3.090046875 1.2134999999999998 L 2.893546875 1.2134999999999998 M 4.140006591796875 1.2149999999999999 Q 4.084506591796875 1.2149999999999999 4.065006591796875 1.1864999999999999 Q 4.045506591796875 1.1579999999999997 4.045506591796875 1.1234999999999997 L 4.045506591796875 0.08699999999999974 Q 4.045506591796875 0.01499999999999968 4.132506591796875 0.01499999999999968 Q 4.222506591796875 0.01499999999999968 4.222506591796875 0.08699999999999974 L 4.222506591796875 1.0635 L 4.723506591796875 1.0635 Q 4.777506591796875 1.0635 4.777506591796875 1.1369999999999998 Q 4.780506591796875 1.2149999999999999 4.723506591796875 1.2149999999999999 L 4.140006591796875 1.2149999999999999 M 5.1285322265625 1.2134999999999998 Q 5.0820322265625 1.2134999999999998 5.0400322265625 1.2007499999999998 Q 4.9980322265625 1.1879999999999997 4.9590322265625 1.1639999999999997 L 4.9590322265625 1.1654999999999998 Q 4.8855322265625 1.1189999999999998 4.8855322265625 0.9944999999999998 L 4.8855322265625 0.9209999999999998 Q 4.8855322265625 0.8594999999999998 4.9072822265625 0.8137499999999998 Q 4.9290322265625 0.7679999999999998 4.9680322265625 0.7409999999999998 L 4.9665322265625 0.7409999999999998 Q 5.0040322265625 0.7154999999999998 5.0460322265625 0.7027499999999998 Q 5.0880322265625 0.6899999999999998 5.1270322265625 0.6899999999999998 L 5.4585322265625 0.6899999999999998 L 5.4585322265625 0.5504999999999998 Q 5.4585322265625 0.5129999999999998 5.4352822265625 0.48224999999999973 Q 5.4120322265625 0.4514999999999998 5.3565322265625 0.4514999999999998 L 5.1810322265625 0.4514999999999998 Q 5.1240322265625 0.4514999999999998 5.1022822265625 0.47924999999999973 Q 5.0805322265625 0.5069999999999998 5.0805322265625 0.5444999999999998 L 5.0805322265625 0.5564999999999998 Q 5.0805322265625 0.6344999999999998 4.9965322265625 0.6344999999999998 Q 4.9125322265625 0.6344999999999998 4.9125322265625 0.5564999999999998 L 4.9125322265625 0.5429999999999998 Q 4.9125322265625 0.4814999999999998 4.9342822265625 0.4394999999999998 Q 4.9560322265625 0.39749999999999974 4.9935322265625 0.3689999999999998 L 4.9920322265625 0.3689999999999998 Q 5.0310322265625 0.3434999999999998 5.0737822265625 0.32699999999999974 Q 5.1165322265625 0.3104999999999998 5.1555322265625 0.3104999999999998 L 5.3835322265625 0.3104999999999998 Q 5.4210322265625 0.3104999999999998 5.4637822265625005 0.32699999999999974 Q 5.5065322265625 0.3434999999999998 5.5440322265625 0.3689999999999998 L 5.5425322265625 0.3689999999999998 Q 5.5815322265625 0.39749999999999974 5.6025322265625 0.4432499999999998 Q 5.6235322265625 0.48899999999999977 5.6235322265625 0.5489999999999998 L 5.6235322265625 1.1504999999999999 Q 5.6235322265625 1.2224999999999997 5.5410322265625 1.2224999999999997 Q 5.5245322265625 1.2224999999999997 5.5102822265625 1.2209999999999999 Q 5.4960322265625 1.2194999999999998 5.4847822265625 1.2127499999999998 Q 5.4735322265625 1.2059999999999997 5.4667822265625 1.1932499999999997 Q 5.4600322265625 1.1804999999999999 5.4600322265625 1.1594999999999998 L 5.4585322265625 0.8309999999999997 L 5.1555322265625 0.8309999999999997 Q 5.1225322265625 0.8309999999999997 5.1045322265625 0.8384999999999998 Q 5.0865322265625 0.8459999999999999 5.0760322265625 0.8624999999999998 Q 5.0640322265625 0.8879999999999998 5.0587822265625 0.9022499999999998 Q 5.0535322265625 0.9164999999999999 5.0535322265625 0.9344999999999998 L 5.0535322265625 0.9929999999999998 Q 5.0535322265625 1.0319999999999998 5.0767822265625 1.05225 Q 5.1000322265625 1.0724999999999998 5.1570322265625 1.0724999999999998 L 5.3250322265625 1.0724999999999998 Q 5.3805322265625 1.0724999999999998 5.3805322265625 1.1429999999999998 Q 5.3805322265625 1.1729999999999998 5.3670322265625 1.1932499999999997 Q 5.3535322265625 1.2134999999999998 5.3250322265625 1.2134999999999998 L 5.1285322265625 1.2134999999999998 M 5.98051025390625 1.1504999999999999 Q 5.98051025390625 1.1864999999999999 5.95501025390625 1.2045 Q 5.92951025390625 1.2224999999999997 5.89951025390625 1.2224999999999997 Q 5.81701025390625 1.2224999999999997 5.81701025390625 1.1504999999999999 L 5.81701025390625 0.08549999999999969 Q 5.81701025390625 0.013499999999999845 5.89951025390625 0.013499999999999845 Q 5.98201025390625 0.013499999999999845 5.98201025390625 0.08549999999999969 L 5.98201025390625 0.3104999999999998 L 6.29851025390625 0.3104999999999998 Q 6.37501025390625 0.3104999999999998 6.45751025390625 0.3674999999999998 Q 6.53851025390625 0.42449999999999977 6.53851025390625 0.5474999999999998 L 6.53851025390625 0.9944999999999998 Q 6.53851025390625 1.1189999999999998 6.46501025390625 1.1654999999999998 Q 6.39151025390625 1.2134999999999998 6.29701025390625 1.2134999999999998 L 6.12001025390625 1.2134999999999998 Q 6.06601025390625 1.2134999999999998 6.06301025390625 1.1429999999999998 Q 6.06301025390625 1.0724999999999998 6.12001025390625 1.0724999999999998 L 6.27001025390625 1.0724999999999998 Q 6.32551025390625 1.0724999999999998 6.34951025390625 1.05225 Q 6.37351025390625 1.0319999999999998 6.37351025390625 0.9929999999999998 L 6.37351025390625 0.5609999999999998 Q 6.37351025390625 0.5219999999999998 6.34951025390625 0.48599999999999977 L 6.35101025390625 0.4874999999999998 Q 6.33151025390625 0.4514999999999998 6.27151025390625 0.4514999999999998 L 5.98201025390625 0.4514999999999998 L 5.98051025390625 1.1504999999999999 M 7.21051611328125 0.6884999999999998 Q 7.24801611328125 0.6884999999999998 7.29076611328125 0.7057499999999998 Q 7.33351611328125 0.7229999999999999 7.37101611328125 0.7484999999999997 L 7.36951611328125 0.7484999999999997 Q 7.40851611328125 0.7769999999999998 7.42951611328125 0.8219999999999998 Q 7.45051611328125 0.8669999999999998 7.45051611328125 0.9299999999999997 L 7.45051611328125 0.9749999999999998 Q 7.45051611328125 1.0979999999999999 7.36951611328125 1.1564999999999999 Q 7.33051611328125 1.1864999999999999 7.29001611328125 1.1999999999999997 Q 7.24951611328125 1.2134999999999998 7.21051611328125 1.2134999999999998 L 6.95551611328125 1.2134999999999998 Q 6.91651611328125 1.2134999999999998 6.87601611328125 1.1999999999999997 Q 6.83551611328125 1.1864999999999999 6.79651611328125 1.1564999999999999 Q 6.71551611328125 1.0994999999999997 6.71551611328125 0.9749999999999998 L 6.71551611328125 0.9569999999999999 Q 6.71551611328125 0.8924999999999998 6.79801611328125 0.8939999999999998 Q 6.88201611328125 0.8939999999999998 6.88201611328125 0.9569999999999999 L 6.88201611328125 0.9734999999999998 Q 6.88201611328125 1.0094999999999998 6.90451611328125 1.0409999999999997 Q 6.92701611328125 1.0724999999999998 6.98401611328125 1.0724999999999998 L 7.18201611328125 1.0724999999999998 Q 7.2390161132812505 1.0724999999999998 7.26151611328125 1.0409999999999997 Q 7.28401611328125 1.0094999999999998 7.28401611328125 0.9734999999999998 L 7.28401611328125 0.9314999999999998 Q 7.28401611328125 0.9119999999999998 7.27876611328125 0.8939999999999998 Q 7.27351611328125 0.8759999999999998 7.26151611328125 0.8617499999999998 Q 7.24951611328125 0.8474999999999998 7.23001611328125 0.8384999999999998 Q 7.21051611328125 0.8294999999999998 7.18201611328125 0.8294999999999998 L 6.96301611328125 0.8294999999999998 Q 6.88651611328125 0.8294999999999998 6.80251611328125 0.7754999999999999 Q 6.72301611328125 0.7244999999999998 6.72301611328125 0.5999999999999998 L 6.72301611328125 0.5489999999999998 Q 6.72301611328125 0.48899999999999977 6.74401611328125 0.4432499999999998 Q 6.76501611328125 0.39749999999999974 6.80401611328125 0.3689999999999998 L 6.80251611328125 0.3689999999999998 Q 6.84001611328125 0.3434999999999998 6.88201611328125 0.32699999999999974 Q 6.92401611328125 0.3104999999999998 6.96301611328125 0.3104999999999998 L 7.20301611328125 0.3104999999999998 Q 7.24201611328125 0.3104999999999998 7.28326611328125 0.32699999999999974 Q 7.32451611328125 0.3434999999999998 7.36351611328125 0.3689999999999998 L 7.36201611328125 0.3689999999999998 Q 7.4010161132812495 0.39749999999999974 7.42201611328125 0.4432499999999998 Q 7.44301611328125 0.48899999999999977 7.44301611328125 0.5489999999999998 L 7.44301611328125 0.5624999999999998 Q 7.44301611328125 0.5939999999999998 7.42201611328125 0.6082499999999997 Q 7.4010161132812495 0.6224999999999998 7.36051611328125 0.6239999999999998 Q 7.27801611328125 0.6254999999999998 7.27801611328125 0.5624999999999998 L 7.27801611328125 0.5504999999999998 Q 7.27801611328125 0.5129999999999998 7.25476611328125 0.48224999999999973 Q 7.23151611328125 0.4514999999999998 7.17601611328125 0.4514999999999998 L 6.99001611328125 0.4514999999999998 Q 6.93451611328125 0.4514999999999998 6.91126611328125 0.48224999999999973 Q 6.88801611328125 0.5129999999999998 6.88801611328125 0.5504999999999998 L 6.88801611328125 0.5864999999999998 Q 6.88801611328125 0.6254999999999998 6.91126611328125 0.6569999999999998 Q 6.93451611328125 0.6884999999999998 6.99001611328125 0.6884999999999998 L 7.21051611328125 0.6884999999999998" fill="#cccccc" fill-rule="nonzero"></path></g><g></g></g><defs><clipPath id="SvgjsClipPath155250"><path d=" M -2.752463202056434 -0.6659795372544788 h 2.352463202056434 v 2.5454590745089574 h -2.352463202056434 Z"></path></clipPath><clipPath id="SvgjsClipPath1552483eaa4b0a-9ff2-4eb2-80ba-916f16976b8b"><path d=" M -2.752463202056434 -0.6659795372544788 L -0.3999999999999999 -0.6659795372544788 L -0.3999999999999999 1.8794795372544786 L -2.752463202056434 1.8794795372544786 Z"></path></clipPath><linearGradient id="gradient-8a26d4d4-a4c2-4970-a0be-f77581e2c8c2_0" x1="0" x2="1" y1="0" y2="1"><stop stop-color="#909194" offset="0"></stop><stop stop-color="#4e4f50" offset="1"></stop></linearGradient><linearGradient id="gradient-8a26d4d4-a4c2-4970-a0be-f77581e2c8c2_1" x1="0" x2="1" y1="0" y2="1"><stop stop-color="#b6b8bc" offset="0"></stop><stop stop-color="#282828" offset="1"></stop></linearGradient><linearGradient id="gradient-8a26d4d4-a4c2-4970-a0be-f77581e2c8c2_2" x1="0" x2="1" y1="0" y2="1"><stop stop-color="#939598" offset="0"></stop><stop stop-color="#7c7d7f" offset="1"></stop></linearGradient><linearGradient id="gradient-8a26d4d4-a4c2-4970-a0be-f77581e2c8c2_3" x1="0" x2="1" y1="0" y2="1"><stop stop-color="#96979a" offset="0"></stop><stop stop-color="#6c6d6f" offset="1"></stop></linearGradient><linearGradient id="gradient-8a26d4d4-a4c2-4970-a0be-f77581e2c8c2_4" x1="0" x2="1" y1="0" y2="1"><stop stop-color="#555658" offset="0"></stop><stop stop-color="#343434" offset="1"></stop></linearGradient></defs></svg>